<?xml version="1.0" encoding="utf-8"?>
<!-- Generator: Adobe Illustrator 17.0.0, SVG Export Plug-In . SVG Version: 6.00 Build 0)  -->
<!DOCTYPE svg PUBLIC "-//W3C//DTD SVG 1.1//EN" "http://www.w3.org/Graphics/SVG/1.1/DTD/svg11.dtd">
<svg version="1.1" id="Layer_1" xmlns="http://www.w3.org/2000/svg" xmlns:xlink="http://www.w3.org/1999/xlink" x="0px" y="0px"
	 width="566.9px" height="566.9px" viewBox="0 0 566.9 566.9" enable-background="new 0 0 566.9 566.9" xml:space="preserve">
<path d="M524,492.6H72.8l0-451.1c0-10-7.8-17.8-17.8-17.8c-10,0-17.8,7.8-17.8,17.8l0,469c0,10,7.8,17.8,17.8,17.8l469,0
	c10,0,17.8-7.8,17.8-17.8C541.8,500.4,533.9,492.6,524,492.6L524,492.6z M524,492.6"/>
<path fill="none" stroke="#000000" stroke-width="6.0705" stroke-miterlimit="10" d="M245.4,427.9l0-198.9c0-7.8-7.8-13.8-17.8-13.8
	c-10,0-17.8,6.1-17.8,13.8l0,198.9c0,7.8,7.8,13.8,17.8,13.8C237.5,441.8,245.4,435.7,245.4,427.9L245.4,427.9z M245.4,427.9"/>
<path fill="none" stroke="#000000" stroke-width="6.0705" stroke-miterlimit="10" d="M159.3,423.9l0-256.4c0-10-7.8-17.8-17.8-17.8
	c-10,0-17.8,7.8-17.8,17.8l0,256.4c0,10,7.8,17.8,17.8,17.8C151.5,441.8,159.3,433.9,159.3,423.9L159.3,423.9z M159.3,423.9"/>
<path fill="none" stroke="#000000" stroke-width="6.0705" stroke-miterlimit="10" d="M417.5,431.9l0-141.7c0-5.5-7.8-9.9-17.8-9.9
	c-10,0-17.8,4.3-17.8,9.9v141.7c0,5.5,7.8,9.9,17.8,9.9C409.6,441.8,417.5,437.4,417.5,431.9L417.5,431.9z M417.5,431.9"/>
<path fill="none" stroke="#000000" stroke-width="6.0705" stroke-miterlimit="10" d="M503.5,425.1V305.2c0-9.3-7.8-16.7-17.8-16.7
	c-10,0-17.8,7.3-17.8,16.7v119.9c0,9.4,7.8,16.7,17.8,16.7C495.7,441.8,503.5,434.4,503.5,425.1L503.5,425.1z M503.5,425.1"/>
<path fill="none" stroke="#000000" stroke-width="6.0705" stroke-miterlimit="10" d="M331.4,421.7V277.3c0-11.3-7.8-20-17.8-20
	c-10,0-17.8,8.8-17.8,20l0,144.4c0,11.3,7.8,20.1,17.8,20.1C323.6,441.8,331.4,433,331.4,421.7L331.4,421.7z M331.4,421.7"/>
</svg>
