<?xml version="1.0" encoding="utf-8"?>
<!-- Generator: Adobe Illustrator 17.0.0, SVG Export Plug-In . SVG Version: 6.00 Build 0)  -->
<!DOCTYPE svg PUBLIC "-//W3C//DTD SVG 1.1//EN" "http://www.w3.org/Graphics/SVG/1.1/DTD/svg11.dtd">
<svg version="1.1" id="Layer_1" xmlns="http://www.w3.org/2000/svg" xmlns:xlink="http://www.w3.org/1999/xlink" x="0px" y="0px"
	 width="566.9px" height="566.9px" viewBox="0 0 566.9 566.9" enable-background="new 0 0 566.9 566.9" xml:space="preserve">
<path d="M523.6,492.9H72.8V42.2c0-10-7.8-17.8-17.8-17.8c-10,0-17.8,7.8-17.8,17.8v468.6c0,10,7.8,17.8,17.8,17.8h468.6
	c10,0,17.8-7.8,17.8-17.8C541.4,500.8,533.6,492.9,523.6,492.9L523.6,492.9z M523.6,492.9"/>
<path fill="none" stroke="#000000" stroke-width="6.0659" stroke-miterlimit="10" d="M503.2,424.3V296.2c0-10-7.8-17.8-17.8-17.8
	c-10,0-17.8,7.8-17.8,17.8v128.1c0,10,7.8,17.8,17.8,17.8C495.4,442.1,503.2,434.3,503.2,424.3L503.2,424.3z M503.2,424.3"/>
<path fill="none" stroke="#000000" stroke-width="6.0659" stroke-miterlimit="10" d="M331.2,424.3V296.2c0-10-7.8-17.8-17.8-17.8
	c-10,0-17.8,7.8-17.8,17.8v128.1c0,10,7.8,17.8,17.8,17.8C323.4,442.1,331.2,434.3,331.2,424.3L331.2,424.3z M331.2,424.3"/>
<path fill="none" stroke="#000000" stroke-width="6.0659" stroke-miterlimit="10" d="M245.3,424.3V296.2c0-10-7.8-17.8-17.8-17.8
	c-10,0-17.8,7.8-17.8,17.8v128.1c0,10,7.8,17.8,17.8,17.8C237.4,442.1,245.3,434.3,245.3,424.3L245.3,424.3z M245.3,424.3"/>
<path fill="none" stroke="#000000" stroke-width="6.0659" stroke-miterlimit="10" d="M159.3,424.3V296.2c0-10-7.8-17.8-17.8-17.8
	c-10,0-17.8,7.8-17.8,17.8v128.1c0,10,7.8,17.8,17.8,17.8C151.4,442.1,159.3,434.3,159.3,424.3L159.3,424.3z M159.3,424.3"/>
<path fill="none" stroke="#000000" stroke-width="6.0659" stroke-miterlimit="10" d="M417.2,424.3V296.2c0-10-7.8-17.8-17.8-17.8
	c-10,0-17.8,7.8-17.8,17.8v128.1c0,10,7.8,17.8,17.8,17.8C409.4,442.1,417.2,434.3,417.2,424.3L417.2,424.3z M417.2,424.3"/>
</svg>
