<?xml version="1.0" encoding="utf-8"?>
<!-- Generator: Adobe Illustrator 17.0.0, SVG Export Plug-In . SVG Version: 6.00 Build 0)  -->
<!DOCTYPE svg PUBLIC "-//W3C//DTD SVG 1.1//EN" "http://www.w3.org/Graphics/SVG/1.1/DTD/svg11.dtd">
<svg version="1.1" id="Layer_1" xmlns="http://www.w3.org/2000/svg" xmlns:xlink="http://www.w3.org/1999/xlink" x="0px" y="0px"
	 width="566.9px" height="566.9px" viewBox="0 0 566.9 566.9" enable-background="new 0 0 566.9 566.9" xml:space="preserve">
<path d="M523.6,492.4l-451.7,0l0-451.7c0-10-7.8-17.8-17.8-17.8c-10,0-17.8,7.8-17.8,17.8l0,469.5c0,10,7.8,17.8,17.8,17.8l469.5,0
	c10,0,17.8-7.8,17.8-17.8C541.4,500.2,533.6,492.4,523.6,492.4L523.6,492.4z M523.6,492.4"/>
<path fill="none" stroke="#000000" stroke-width="6.0779" stroke-miterlimit="10" d="M244.7,423.6l0-256.7c0-10-7.8-17.8-17.8-17.8
	c-10,0-17.8,7.8-17.8,17.8l0,256.7c0,10,7.8,17.8,17.8,17.8C236.8,441.5,244.7,433.7,244.7,423.6L244.7,423.6z M244.7,423.6"/>
<path fill="none" stroke="#000000" stroke-width="6.0779" stroke-miterlimit="10" d="M158.5,423.6l0-256.7c0-10-7.8-17.8-17.8-17.8
	c-10,0-17.8,7.8-17.8,17.8l0,256.7c0,10,7.8,17.8,17.8,17.8C150.7,441.5,158.5,433.7,158.5,423.6L158.5,423.6z M158.5,423.6"/>
<path fill="none" stroke="#000000" stroke-width="6.0779" stroke-miterlimit="10" d="M417,423.6l0-256.7c0-10-7.8-17.8-17.8-17.8
	c-10,0-17.8,7.8-17.8,17.8l0,256.7c0,10,7.8,17.8,17.8,17.8C409.1,441.5,417,433.7,417,423.6L417,423.6z M417,423.6"/>
<path fill="none" stroke="#000000" stroke-width="6.0779" stroke-miterlimit="10" d="M503.1,423.6l0-128.4c0-10-7.8-17.8-17.8-17.8
	c-10,0-17.8,7.8-17.8,17.8l0,128.4c0,10,7.8,17.8,17.8,17.8C495.3,441.5,503.1,433.7,503.1,423.6L503.1,423.6z M503.1,423.6"/>
<path fill="none" stroke="#000000" stroke-width="6.0779" stroke-miterlimit="10" d="M330.8,423.6l0-128.4c0-10-7.8-17.8-17.8-17.8
	c-10,0-17.8,7.8-17.8,17.8l0,128.4c0,10,7.8,17.8,17.8,17.8C323,441.5,330.8,433.7,330.8,423.6L330.8,423.6z M330.8,423.6"/>
</svg>
