<?xml version="1.0" encoding="utf-8"?>
<!-- Generator: Adobe Illustrator 17.0.0, SVG Export Plug-In . SVG Version: 6.00 Build 0)  -->
<!DOCTYPE svg PUBLIC "-//W3C//DTD SVG 1.1//EN" "http://www.w3.org/Graphics/SVG/1.1/DTD/svg11.dtd">
<svg version="1.1" id="Layer_1" xmlns="http://www.w3.org/2000/svg" xmlns:xlink="http://www.w3.org/1999/xlink" x="0px" y="0px"
	 width="566.9px" height="566.9px" viewBox="0 0 566.9 566.9" enable-background="new 0 0 566.9 566.9" xml:space="preserve">
<g>
	<path d="M247,493.5c-11-2.7-22.1,4-24.9,15c-2.7,11,4,22.1,15,24.9c5,1.3,10.1,2.4,15.2,3.3c5.7,1.1,11.2-0.3,15.6-3.4
		c4.2-3,7.3-7.5,8.4-13c2.1-11.1-5.3-21.9-16.4-23.9C255.5,495.4,251.2,494.5,247,493.5L247,493.5z M247,493.5"/>
	<path d="M180.3,464.2c-9.5-6.3-22.2-3.7-28.4,5.8c-6.2,9.5-3.6,22.2,5.8,28.4c4.3,2.9,8.8,5.6,13.2,8.2c7.2,4.1,15.8,3.5,22.1-1
		c2.4-1.7,4.4-3.9,5.9-6.5c5.7-9.8,2.3-22.4-7.5-28C187.7,468.9,184,466.6,180.3,464.2L180.3,464.2z M180.3,464.2"/>
	<path d="M98.6,410.2c-9.1,6.8-10.9,19.7-4.1,28.7c3.1,4.1,6.4,8.2,9.7,12.2c6.9,8.1,18.8,9.5,27.4,3.5c0.5-0.4,1-0.7,1.5-1.2
		c8.6-7.3,9.7-20.3,2.3-28.9c-2.8-3.3-5.6-6.7-8.2-10.2C120.6,405.2,107.7,403.4,98.6,410.2L98.6,410.2z M98.6,410.2"/>
	<g>
		<path d="M68.5,336c-10.8,3.4-16.8,14.9-13.4,25.7c1.5,4.9,3.3,9.9,5.1,14.7c4,10.6,15.9,15.9,26.5,11.9c1.6-0.6,3.2-1.4,4.5-2.4
			c7.5-5.3,10.7-15.1,7.3-24.1c-1.6-4.1-3-8.2-4.3-12.3C90.8,338.6,79.3,332.6,68.5,336L68.5,336z M68.5,336"/>
		<path d="M336.6,496.4c-11.2,2-18.6,12.7-16.6,23.8c2,11.1,12.7,18.6,23.8,16.6c36.8-6.6,71-20.9,101.7-42.6
			c11.7-8.3,22.7-17.4,32.7-27.3c0,0,0.1,0,0.1-0.1c0.1-0.1,0.2-0.2,0.3-0.3c37.3-37,62.3-84.5,71.4-137.3
			c0.9-5.2,1.6-10.4,2.2-15.5c0.1-0.3,0.1-0.6,0.2-1c0.6-5.1,1-10.4,1.2-15.5c0-0.2,0-0.4,0-0.5c2.4-52.7-11.5-104.4-40.4-149.2
			c-0.2-0.3-0.4-0.7-0.6-1c-1.7-2.7-3.6-5.4-5.4-8c-1.1-1.6-2.3-3.2-3.5-4.8c-0.3-0.4-0.6-0.7-0.9-1.1c-35-46.8-84.1-79.6-140.3-94
			c-0.2-0.1-0.5-0.1-0.7-0.2c0,0-0.1,0-0.1,0c-6.4-1.6-12.9-3-19.4-4.1C277,22.9,211.3,36.9,156.5,73.7l-16.1-23.2
			c-4.5-6.4-9.8-5.5-11.9,2l-18.7,67.4c-2.1,7.5,2.6,14.3,10.4,15l69.6,6.2c7.8,0.7,10.5-4,6.1-10.4l-16-23.2
			C254.5,57.7,350,61,420.3,109.4c0.2,0.2,0.5,0.3,0.7,0.5c19.9,13.9,37.8,31.4,52.6,52.4c68,96.5,44.8,230.4-51.7,298.4
			c-6.6,4.7-13.4,8.9-20.4,12.8c0,0,0,0-0.1,0c-3.8,2.1-7.7,4.1-11.7,5.9c-0.2,0.1-0.4,0.2-0.6,0.3
			C372.5,487.5,354.9,493.1,336.6,496.4L336.6,496.4z M336.6,496.4"/>
	</g>
</g>
<g>
	<path fill="none" stroke="#000000" stroke-width="6.6315" stroke-miterlimit="10" d="M346,373.7c0,8,6.3,14.3,14.3,14.3
		c8,0,14.2-6.3,14.2-14.3v-205c0-8-6.2-14.3-14.2-14.3c-8,0-14.3,6.3-14.3,14.3V373.7L346,373.7z M346,373.7"/>
	<path fill="none" stroke="#000000" stroke-width="6.6315" stroke-miterlimit="10" d="M414.8,373.7c0,8,6.3,14.3,14.3,14.3
		c8,0,14.2-6.3,14.2-14.3l0-205c0-8-6.2-14.3-14.2-14.3c-8,0-14.3,6.3-14.3,14.3L414.8,373.7L414.8,373.7z M414.8,373.7"/>
	<path fill="none" stroke="#000000" stroke-width="6.6315" stroke-miterlimit="10" d="M208.4,373.7c0,8,6.3,14.3,14.3,14.3
		c8,0,14.2-6.3,14.2-14.3l0-205c0-8-6.2-14.3-14.2-14.3c-8,0-14.3,6.3-14.3,14.3L208.4,373.7L208.4,373.7z M208.4,373.7"/>
	<path fill="none" stroke="#000000" stroke-width="6.6315" stroke-miterlimit="10" d="M139.6,373.7c0,8,6.3,14.3,14.3,14.3
		c8,0,14.2-6.3,14.2-14.3V271.2c0-8-6.2-14.2-14.2-14.2c-8,0-14.3,6.2-14.3,14.2L139.6,373.7L139.6,373.7z M139.6,373.7"/>
	<path fill="none" stroke="#000000" stroke-width="6.6315" stroke-miterlimit="10" d="M277.2,373.7c0,8,6.3,14.3,14.3,14.3
		c8,0,14.2-6.3,14.2-14.3V271.2c0-8-6.2-14.2-14.2-14.2c-8,0-14.3,6.2-14.3,14.2V373.7L277.2,373.7z M277.2,373.7"/>
</g>
<path fill="#0D0D0D" d="M115.6,231.9c3-0.9,9.9-2.9,13.1-12.3l6.6-19.5l2.7,0.9c1.2,0.4,2.6-0.2,3-1.5l3.6-10.5
	c0.4-1.2-0.2-2.6-1.5-3l-86-29.2c-1.2-0.4-2.6,0.2-3,1.5l-3.6,10.5c-0.4,1.2,0.2,2.6,1.5,3l2.7,0.9L48,192.5
	c-3.2,9.4-1.1,12.5,2.9,17.3l17.4,20.8l-1.9,5.7c-6.7,1.4-24.1,5.2-26.4,5.9c-3,0.9-9.9,2.9-13.1,12.3l-5.7,16.8l-2.7-0.9
	c-1.2-0.4-2.6,0.2-3,1.5l-3.6,10.5c-0.4,1.2,0.2,2.6,1.5,3l86,29.2c1.2,0.4,2.6-0.2,3-1.5l3.6-10.5c0.4-1.2-0.2-2.6-1.5-3l-2.7-0.9
	l5.8-17.2c3.2-9.4,1.1-12.5-2.9-17.3l-17.4-20.8l1.9-5.7C95.9,236.4,113.3,232.6,115.6,231.9L115.6,231.9z M79.3,247.1l18.9,22.7
	c1.5,1.7,2.2,2.7,2.4,3.6c0.3,1-0.1,2.9-1,5.6l-5.8,17.2l-64.7-22l5.7-16.8c1.8-5.3,5.1-6.2,7.5-6.9c1.9-0.5,17.9-4,28.2-6.3
	c1.4-0.3,2.6-1.4,3.1-2.8l3.5-10.2c0.5-1.4,0.2-2.9-0.8-4.1l-18.9-22.6l-0.1-0.1c-1.4-1.7-2.2-2.7-2.4-3.6c-0.2-1,0.1-2.9,1-5.6
	l6.8-19.9l64.7,22l-6.6,19.5c-1.8,5.3-5.1,6.2-7.5,6.9c-1.9,0.5-17.9,4-28.2,6.3c-1.4,0.3-2.6,1.4-3.1,2.8l-3.5,10.2
	C78.1,244.5,78.4,246,79.3,247.1L79.3,247.1z M79.3,247.1"/>
</svg>
