<?xml version="1.0" encoding="utf-8"?>
<!-- Generator: Adobe Illustrator 17.0.0, SVG Export Plug-In . SVG Version: 6.00 Build 0)  -->
<!DOCTYPE svg PUBLIC "-//W3C//DTD SVG 1.1//EN" "http://www.w3.org/Graphics/SVG/1.1/DTD/svg11.dtd">
<svg version="1.1" id="Layer_1" xmlns="http://www.w3.org/2000/svg" xmlns:xlink="http://www.w3.org/1999/xlink" x="0px" y="0px"
	 width="566.9px" height="566.9px" viewBox="0 0 566.9 566.9" enable-background="new 0 0 566.9 566.9" xml:space="preserve">
<g>
	<path fill="none" stroke="#000000" stroke-width="6.1375" stroke-miterlimit="10" d="M158.5,427.2l0-201.1c0-7.8-7.9-14-18-14
		c-10.1,0-18,6.1-18,14l0,201.1c0,7.8,7.9,14,18,14C150.6,441.2,158.5,435.1,158.5,427.2L158.5,427.2z M158.5,427.2"/>
	<path d="M527.1,492.6l-456.1,0l0-456.1c0-10.1-7.9-18-18-18c-10.1,0-18,7.9-18,18l0,474.1c0,10.1,7.9,18,18,18l474.1,0
		c10.1,0,18-7.9,18-18C545.1,500.5,537.2,492.6,527.1,492.6L527.1,492.6z M527.1,492.6"/>
	<path fill="none" stroke="#000000" stroke-width="6.1375" stroke-miterlimit="10" d="M419.5,423.2l0-259.3c0-10.1-7.9-18-18-18
		c-10.1,0-18,7.9-18,18l0,259.3c0,10.1,7.9,18,18,18C411.6,441.2,419.5,433.3,419.5,423.2L419.5,423.2z M419.5,423.2"/>
	<path fill="none" stroke="#000000" stroke-width="6.1375" stroke-miterlimit="10" d="M332.5,423.2l0-129.6c0-10.1-7.9-18-18-18
		c-10.1,0-18,7.9-18,18l0,129.6c0,10.1,7.9,18,18,18C324.6,441.2,332.5,433.3,332.5,423.2L332.5,423.2z M332.5,423.2"/>
	<path fill="none" stroke="#000000" stroke-width="6.1375" stroke-miterlimit="10" d="M245.5,379.5c0-10.1-7.9-18-18-18
		c-10.1,0-18,7.9-18,18l0,21.2l0,0l0,27c0,10.1,7.9,18,18,18c10.1,0,18-7.9,18-18l0-7.2l0,0L245.5,379.5z"/>
	<path fill="none" stroke="#000000" stroke-width="6.1375" stroke-miterlimit="10" d="M506.5,379.5c0-10.1-7.9-18-18-18
		c-10.1,0-18,7.9-18,18l0,33.2l0,14.9c0,10.1,7.9,18,18,18c10.1,0,18-7.9,18-18l0-25.3L506.5,379.5z"/>
</g>
</svg>
