<?xml version="1.0" encoding="utf-8"?>
<!-- Generator: Adobe Illustrator 17.0.0, SVG Export Plug-In . SVG Version: 6.00 Build 0)  -->
<!DOCTYPE svg PUBLIC "-//W3C//DTD SVG 1.1//EN" "http://www.w3.org/Graphics/SVG/1.1/DTD/svg11.dtd">
<svg version="1.1" id="Layer_1" xmlns="http://www.w3.org/2000/svg" xmlns:xlink="http://www.w3.org/1999/xlink" x="0px" y="0px"
	 width="566.9px" height="566.9px" viewBox="0 0 566.9 566.9" enable-background="new 0 0 566.9 566.9" xml:space="preserve">
<g>
	<path stroke="#FFFFFF" stroke-width="3.0184" stroke-miterlimit="10" d="M288.2,132.7l-149.6,0c-38.5,0-69.7,31.2-69.7,69.7l0,63.9
		l0,152.5l289.1,0l0-152.5l0-63.9C357.9,164,326.7,132.7,288.2,132.7z M180.7,161.8l65.4,0l0,9.7l-65.4,0L180.7,161.8z M132.8,376.8
		c-8.8,0-16-7.2-16-16c0-8.8,7.2-16,16-16c8.8,0,16,7.2,16,16S141.6,376.8,132.8,376.8z M302.7,376.8c-8.8,0-16-7.2-16-16
		c0-8.8,7.2-16,16-16c8.8,0,16,7.2,16,16C318.7,369.6,311.5,376.8,302.7,376.8z M318.7,314.3l-201.9,0l0-113.3l201.9,0L318.7,314.3z
		"/>
	<rect x="86.3" y="418.9" stroke="#FFFFFF" stroke-width="3.0184" stroke-miterlimit="10" width="254.2" height="27.6"/>
	<path stroke="#FFFFFF" stroke-width="3.0184" stroke-miterlimit="10" d="M357.9,460.3c0,7.6-6.2,13.8-13.8,13.8l-261.5,0
		c-7.6,0-13.8-6.2-13.8-13.8l0,0c0-7.6,6.2-13.8,13.8-13.8l261.5,0C351.7,446.5,357.9,452.7,357.9,460.3L357.9,460.3z"/>
	<line fill="#FFFFFF" stroke="#000000" stroke-width="6.0368" stroke-miterlimit="10" x1="140" y1="503.2" x2="79" y2="560.8"/>
	
		<line fill="#FFFFFF" stroke="#000000" stroke-width="6.0368" stroke-miterlimit="10" x1="179.2" y1="503.2" x2="118.2" y2="560.8"/>
	
		<line fill="#FFFFFF" stroke="#000000" stroke-width="6.0368" stroke-miterlimit="10" x1="291.8" y1="503.2" x2="352.8" y2="560.8"/>
	
		<line fill="#FFFFFF" stroke="#000000" stroke-width="6.0368" stroke-miterlimit="10" x1="252.6" y1="503.2" x2="313.6" y2="560.8"/>
	<circle fill="#FFFFFF" cx="344.8" cy="158.8" r="152.8"/>
	<g>
		<g>
			<defs>
				<rect id="SVGID_1_" x="228.4" y="35.7" width="232.7" height="246.1"/>
			</defs>
			<clipPath id="SVGID_2_">
				<use xlink:href="#SVGID_1_"  overflow="visible"/>
			</clipPath>
			<path clip-path="url(#SVGID_2_)" fill="#0D0D0D" d="M379.4,163c2.7-0.8,9-2.6,11.9-11.2l6-17.8l2.4,0.8c1.1,0.4,2.3-0.2,2.7-1.3
				l3.2-9.5c0.4-1.1-0.2-2.3-1.3-2.7l-78.3-26.6c-1.1-0.4-2.3,0.2-2.7,1.3l-3.2,9.5c-0.4,1.1,0.2,2.3,1.3,2.7l2.4,0.8l-6.1,18.1
				c-2.9,8.5-1,11.4,2.7,15.8l15.8,19l-1.8,5.2c-6.1,1.3-21.9,4.8-24,5.4c-2.7,0.8-9,2.6-11.9,11.2l-5.2,15.3l-2.4-0.8
				c-1.1-0.4-2.3,0.2-2.7,1.3L285,209c-0.4,1.1,0.2,2.3,1.3,2.7l78.3,26.6c1.1,0.4,2.3-0.2,2.7-1.3l3.2-9.5c0.4-1.1-0.2-2.3-1.3-2.7
				l-2.4-0.8l5.3-15.6c2.9-8.5,1-11.4-2.7-15.8l-15.8-19l1.8-5.2C361.5,167,377.3,163.6,379.4,163L379.4,163z M346.3,176.8
				l17.2,20.6c1.3,1.6,2,2.4,2.2,3.2c0.2,0.9-0.1,2.6-0.9,5.1l-5.3,15.6l-58.9-20l5.2-15.3c1.6-4.8,4.6-5.7,6.8-6.3
				c1.7-0.5,16.3-3.7,25.6-5.7c1.3-0.3,2.4-1.2,2.8-2.5l3.2-9.3c0.4-1.3,0.2-2.7-0.7-3.7L326.4,138l-0.1-0.1c-1.3-1.6-2-2.4-2.2-3.2
				c-0.2-0.9,0.1-2.6,0.9-5.1l6.1-18.1l58.9,20l-6,17.8c-1.6,4.8-4.6,5.7-6.8,6.3c-1.7,0.5-16.3,3.7-25.6,5.7
				c-1.3,0.3-2.4,1.2-2.8,2.5l-3.2,9.3C345.2,174.4,345.5,175.8,346.3,176.8L346.3,176.8z M346.3,176.8"/>
			<path clip-path="url(#SVGID_2_)" fill="#0D0D0D" d="M392.8,250.1c-1.7,1-3.5,1.9-5.3,2.8c-0.3,0.1-0.6,0.3-0.8,0.5
				c-0.3,0.1-0.6,0.2-0.8,0.3c-7.7,3.6-15.7,6.1-24,7.6c-0.1,0-0.2,0-0.3,0c-1.9,0.3-3.9,0.6-5.9,0.9c0,0,0,0-0.1,0
				c-3.6,0.4-7.2,0.6-10.9,0.6c-42.4,0-78.6-27.2-92-65.1c-0.2-0.6-0.4-1.2-0.6-1.7c-3.2-9.7-5-20-5-30.7c0-10.8,1.8-21.1,5-30.8
				c0.1-0.2,0.1-0.4,0.2-0.6c0.2-0.6,0.4-1.1,0.6-1.7c0.1-0.3,0.2-0.5,0.3-0.8c11.1-30,36.6-53.1,68.1-60.9c0,0,0,0,0.1,0
				c0.5-0.1,0.9-0.2,1.4-0.3c0.1,0,0.1,0,0.2,0c6.9-1.6,14-2.4,21.3-2.5l0.1,10c0,3.1,2,4,4.4,2l21.2-18c2.4-2,2.3-5.3-0.1-7.3
				l-21.5-17.6c-2.4-2-4.4-1-4.3,2.1l0.1,10c-30.8,0.2-59.8,12.2-81.6,34.1c-2.1,2.1-4.2,4.4-6.2,6.6c0,0,0,0,0,0
				c-0.1,0.1-0.1,0.2-0.2,0.3c-17.2,20.1-26.8,45.3-27.6,71.9c0,0.2,0,0.4,0,0.6c0,0.9,0,1.8,0,2.7c0,1.5,0,3,0.1,4.4
				c0,0.2,0,0.3,0,0.5c1,24.3,9.4,47.2,24.1,66.2c0.1,0.1,0.1,0.1,0.1,0.2c1.4,1.9,3,3.7,4.5,5.5c0.1,0.1,0.2,0.2,0.3,0.3
				c1.6,1.8,3.2,3.5,4.9,5.2c17.3,17.3,39,28.4,62.6,32.4c0.1,0,0.1,0,0.2,0c0.1,0,0.1,0,0.2,0c6.3,1,12.7,1.6,19.3,1.6
				c17.1,0,33.7-3.6,49.1-10.8c0.3-0.2,0.6-0.3,1-0.5c0.3-0.1,0.7-0.3,1-0.4c2.1-1,4.2-2.1,6.3-3.3c4.5-2.5,6.1-8.3,3.5-12.7
				C403,249.1,397.3,247.6,392.8,250.1L392.8,250.1z M392.8,250.1"/>
		</g>
		<path fill="#0D0D0D" d="M425.8,110.7c1.8,2.7,4.8,4.1,7.8,4.1c1.8,0,3.6-0.5,5.2-1.6c4.3-2.9,5.4-8.7,2.5-13
			c-1.3-2-2.7-3.9-4.1-5.8c-3.1-4.1-9-4.9-13.1-1.7c-4.1,3.1-4.9,9-1.7,13.1C423.5,107.5,424.7,109.1,425.8,110.7L425.8,110.7z
			 M425.8,110.7"/>
		<path fill="#0D0D0D" d="M437.6,135.3c0.6,1.9,1.2,3.8,1.6,5.7c1.1,4.2,4.9,7,9.1,7c0.8,0,1.5-0.1,2.3-0.3c5-1.3,8-6.4,6.8-11.4
			c-0.6-2.3-1.2-4.6-2-6.8c-1.6-4.9-6.8-7.6-11.8-6.1C438.8,125.1,436.1,130.4,437.6,135.3L437.6,135.3z M437.6,135.3"/>
		<g>
			<defs>
				<rect id="SVGID_3_" x="228.4" y="35.7" width="232.7" height="246.1"/>
			</defs>
			<clipPath id="SVGID_4_">
				<use xlink:href="#SVGID_3_"  overflow="visible"/>
			</clipPath>
			<path clip-path="url(#SVGID_4_)" fill="#0D0D0D" d="M431.7,228.1c-3.9-3.4-9.8-3-13.2,1c-1.3,1.5-2.6,3-4,4.4
				c-3.6,3.7-3.5,9.6,0.2,13.2c1.8,1.8,4.2,2.7,6.5,2.7c2.4,0,4.9-0.9,6.7-2.8c1.6-1.7,3.3-3.4,4.8-5.2
				C436,237.4,435.6,231.5,431.7,228.1L431.7,228.1z M431.7,228.1"/>
			<path clip-path="url(#SVGID_4_)" fill="#0D0D0D" d="M451.9,159.1c-5.2-0.2-9.5,3.9-9.6,9.1c-0.1,2-0.2,4-0.4,5.9
				c-0.5,5.1,3.3,9.7,8.5,10.2c0.3,0,0.6,0,0.9,0c4.8,0,8.9-3.6,9.3-8.5c0.2-2.3,0.4-4.7,0.4-7.1
				C461.1,163.5,457.1,159.2,451.9,159.1L451.9,159.1z M451.9,159.1"/>
		</g>
		<path fill="#0D0D0D" d="M447.8,195.3c-4.8-1.9-10.2,0.5-12.1,5.3c-0.7,1.8-1.5,3.7-2.3,5.5c-2.2,4.7-0.1,10.2,4.6,12.4
			c1.3,0.6,2.6,0.9,3.9,0.9c3.5,0,6.9-2,8.5-5.4c1-2.1,1.9-4.3,2.8-6.5C454.9,202.7,452.6,197.2,447.8,195.3L447.8,195.3z
			 M447.8,195.3"/>
		<path fill="#0D0D0D" d="M415.9,84.8c3.1-4.2,2.2-10-1.9-13.1c-1.9-1.4-3.8-2.8-5.8-4c-4.3-2.8-10.1-1.6-12.9,2.7
			c-2.8,4.3-1.6,10.1,2.7,12.9c1.7,1.1,3.3,2.2,4.9,3.4c1.7,1.2,3.6,1.8,5.6,1.8C411.3,88.6,414.1,87.3,415.9,84.8L415.9,84.8z
			 M415.9,84.8"/>
	</g>
</g>
</svg>
