<?xml version="1.0" encoding="utf-8"?>
<!-- Generator: Adobe Illustrator 17.0.0, SVG Export Plug-In . SVG Version: 6.00 Build 0)  -->
<!DOCTYPE svg PUBLIC "-//W3C//DTD SVG 1.1//EN" "http://www.w3.org/Graphics/SVG/1.1/DTD/svg11.dtd">
<svg version="1.1" id="Layer_1" xmlns="http://www.w3.org/2000/svg" xmlns:xlink="http://www.w3.org/1999/xlink" x="0px" y="0px"
	 width="566.9px" height="566.9px" viewBox="0 0 566.9 566.9" enable-background="new 0 0 566.9 566.9" xml:space="preserve">
<g>
	<g>
		<path d="M434.7,124.5c3.2-0.2,6.2-1.9,8.1-4.5l29.1-40.2c0.9-1.2,0.8-2.9-0.3-4c-1.1-1.1-2.8-1.2-4-0.3l-40.2,29.1
			c-2.6,1.9-4.3,4.9-4.5,8.1c-0.3,3.2,0.9,6.4,3.2,8.7c2.1,2.1,4.9,3.2,7.8,3.2C434.2,124.5,434.4,124.5,434.7,124.5L434.7,124.5z
			 M429,113.1c0.1-1.4,0.9-2.7,2-3.6l24.5-17.8l-17.7,24.5c-0.9,1.2-2.1,1.9-3.6,2c-1.4,0.1-2.8-0.4-3.8-1.4
			C429.4,115.9,428.9,114.5,429,113.1L429,113.1z M429,113.1"/>
		<path d="M504.4,67.3c0-0.1,0-0.1-0.1-0.2c0-0.1-0.1-0.1-0.1-0.2c-3.1-5.4-6.9-10.4-11.1-14.9l6.7-6.7l4.4,4.4l13.2-13.2
			l-13.2-13.2L491,36.5l4.4,4.4l-6.7,6.7c-4.5-4.2-9.6-7.9-14.9-11.1c-0.1,0-0.1-0.1-0.2-0.1c-0.1,0-0.1,0-0.2-0.1
			c-9.6-5.5-20.4-9.2-31.9-10.6V22h4.7c4.3,0,7.8-3.5,7.8-7.8c0-4.3-3.5-7.8-7.8-7.8h-28c-4.3,0-7.8,3.5-7.8,7.8
			c0,4.3,3.5,7.8,7.8,7.8h4.7v3.6c-3.4,0.3-6.7,0.9-10,1.7c-1.7,0.4-2.7,2-2.3,3.7c0.4,1.7,2,2.7,3.7,2.3c2.9-0.7,5.8-1.1,8.6-1.5
			l3.3-0.3c1-0.1,2-0.1,2.9-0.2v6.1c0,1.7,1.4,3.1,3.1,3.1c1.7,0,3.1-1.4,3.1-3.1v-6.1c11.7,0.5,22.7,3.7,32.5,8.8l-3.1,5.3
			c-0.9,1.5-0.3,3.4,1.1,4.2c0.5,0.3,1,0.4,1.6,0.4c1.1,0,2.1-0.6,2.7-1.5l3-5.3c9.7,6.2,18,14.4,24.2,24.2l-5.3,3
			c-1.5,0.9-2,2.8-1.1,4.2c0.6,1,1.6,1.5,2.7,1.5c0.5,0,1.1-0.1,1.6-0.4l5.3-3.1c5.2,9.9,8.4,21.1,8.9,33h-6.1
			c-1.7,0-3.1,1.4-3.1,3.1c0,1.7,1.4,3.1,3.1,3.1h6.1c-0.5,11.9-3.6,23.1-8.9,33l-5.3-3.1c-1.5-0.9-3.4-0.4-4.2,1.1
			c-0.9,1.5-0.3,3.4,1.1,4.2l5.3,3c-6.2,9.7-14.4,18-24.2,24.2l-3-5.3c-0.9-1.5-2.8-2-4.2-1.1c-1.5,0.8-2,2.8-1.1,4.2l3.1,5.3
			c-9.8,5.2-20.8,8.3-32.5,8.8v-6.1c0-1.7-1.4-3.1-3.1-3.1c-1.7,0-3.1,1.4-3.1,3.1v6.1c-5-0.2-9.9-0.8-14.8-1.9
			c-1.7-0.4-3.3,0.7-3.7,2.3c-0.4,1.7,0.7,3.3,2.3,3.7c6.2,1.4,12.5,2.2,18.8,2.2c0.2,0,0.3,0,0.5,0c0,0,0,0,0,0c0,0,0,0,0.1,0
			c14.9-0.1,29-4.1,41.1-11.1c0.1,0,0.2-0.1,0.3-0.1c0.1,0,0.1-0.1,0.2-0.1c12.6-7.3,23-17.8,30.4-30.3c0.1-0.1,0.1-0.2,0.2-0.2
			c0-0.1,0-0.1,0.1-0.2c7.1-12.3,11.2-26.6,11.2-41.8C515.5,93.8,511.5,79.6,504.4,67.3L504.4,67.3z M504.1,32.1l4.4,4.4l-4.4,4.4
			l-4.4-4.4L504.1,32.1z M429,25.2v-9.4h-10.9c-0.9,0-1.6-0.7-1.6-1.5c0-0.9,0.7-1.5,1.6-1.5h28c0.9,0,1.5,0.7,1.5,1.5
			c0,0.9-0.7,1.5-1.5,1.5h-10.9v9.4c-1.1,0-2.1-0.1-3.1-0.1c-0.1,0-0.2,0-0.3,0c-0.1,0-0.2,0-0.2,0c-0.5,0-1,0-1.5,0
			C429.7,25.1,429.4,25.1,429,25.2L429,25.2z M429,25.2"/>
		<path d="M404.2,50h-15.5c-1.7,0-3.1,1.4-3.1,3.1c0,1.7,1.4,3.1,3.1,3.1h15.5c1.7,0,3.1-1.4,3.1-3.1C407.3,51.4,405.9,50,404.2,50
			L404.2,50z M404.2,50"/>
		<path d="M404.2,71.7h-31.1c-1.7,0-3.1,1.4-3.1,3.1c0,1.7,1.4,3.1,3.1,3.1h31.1c1.7,0,3.1-1.4,3.1-3.1
			C407.3,73.1,405.9,71.7,404.2,71.7L404.2,71.7z M404.2,71.7"/>
		<path d="M404.2,93.5h-46.6c-1.7,0-3.1,1.4-3.1,3.1c0,1.7,1.4,3.1,3.1,3.1h46.6c1.7,0,3.1-1.4,3.1-3.1
			C407.3,94.9,405.9,93.5,404.2,93.5L404.2,93.5z M404.2,93.5"/>
		<path d="M404.2,115.2h-59c-1.7,0-3.1,1.4-3.1,3.1c0,1.7,1.4,3.1,3.1,3.1h59c1.7,0,3.1-1.4,3.1-3.1
			C407.3,116.6,405.9,115.2,404.2,115.2L404.2,115.2z M404.2,115.2"/>
		<path d="M404.2,137h-40.4c-1.7,0-3.1,1.4-3.1,3.1c0,1.7,1.4,3.1,3.1,3.1h40.4c1.7,0,3.1-1.4,3.1-3.1
			C407.3,138.4,405.9,137,404.2,137L404.2,137z M404.2,137"/>
		<path d="M404.2,158.7h-21.8c-1.7,0-3.1,1.4-3.1,3.1c0,1.7,1.4,3.1,3.1,3.1h21.8c1.7,0,3.1-1.4,3.1-3.1
			C407.3,160.1,405.9,158.7,404.2,158.7L404.2,158.7z M404.2,158.7"/>
	</g>
	<g>
		<path d="M228.5,155.3c22,0,40-18,40-39.9c0-22.2-18-40.1-40-40.1c-22.2,0-40,18-40,40C188.5,137.3,206.2,155.3,228.5,155.3
			L228.5,155.3z M231.1,293.1h108.5v-40h-80.4l-44.4-74c-6.7-11.1-18.7-18.5-32.5-18.5c-3.8,0-7.5,0.7-10.9,1.6L50.7,199.7v115.6h40
			v-81.5l46.9-14.7L50.7,559.8h40l63.8-180.2l51.8,69.1v111.1h40V417.3l-55.3-100.9l16.2-63.8L231.1,293.1z M231.1,293.1"/>
	</g>
	<g>
		<line fill="#FFFFFF" x1="517.7" y1="397.8" x2="327.4" y2="397.8"/>
		<g>
			
				<line fill="none" stroke="#000000" stroke-width="28.8312" stroke-miterlimit="10" x1="517.7" y1="397.8" x2="372.9" y2="397.8"/>
			<g>
				<polygon points="379.9,450.4 379.9,345.3 327.4,397.8 				"/>
			</g>
		</g>
	</g>
	<g>
		<g>
			
				<line fill="none" stroke="#000000" stroke-width="28.8312" stroke-miterlimit="10" x1="472.2" y1="509.2" x2="327.4" y2="509.2"/>
			<g>
				<polygon points="465.2,561.7 465.2,456.6 517.7,509.2 				"/>
			</g>
		</g>
	</g>
</g>
</svg>
