<?xml version="1.0" encoding="utf-8"?>
<!-- Generator: Adobe Illustrator 17.0.0, SVG Export Plug-In . SVG Version: 6.00 Build 0)  -->
<!DOCTYPE svg PUBLIC "-//W3C//DTD SVG 1.1//EN" "http://www.w3.org/Graphics/SVG/1.1/DTD/svg11.dtd">
<svg version="1.1" id="Layer_1" xmlns="http://www.w3.org/2000/svg" xmlns:xlink="http://www.w3.org/1999/xlink" x="0px" y="0px"
	 width="566.9px" height="566.9px" viewBox="0 0 566.9 566.9" enable-background="new 0 0 566.9 566.9" xml:space="preserve">
<g>
	<path d="M228.5,155.3c22,0,40-18,40-39.9c0-22.2-18-40.1-40-40.1c-22.2,0-40,18-40,40C188.5,137.3,206.2,155.3,228.5,155.3
		L228.5,155.3z M231.1,293.1h108.5v-40h-80.4l-44.4-74c-6.7-11.1-18.7-18.5-32.5-18.5c-3.8,0-7.5,0.7-10.9,1.6L50.7,199.7v115.6h40
		v-81.5l46.9-14.7L50.7,559.8h40l63.8-180.2l51.8,69.1v111.1h40V417.3l-55.3-100.9l16.2-63.8L231.1,293.1z M231.1,293.1"/>
</g>
<g>
	<line fill="#FFFFFF" x1="517.7" y1="397.8" x2="327.4" y2="397.8"/>
	<g>
		<line fill="none" stroke="#000000" stroke-width="28.8312" stroke-miterlimit="10" x1="517.7" y1="397.8" x2="372.9" y2="397.8"/>
		<g>
			<polygon points="379.9,450.4 379.9,345.3 327.4,397.8 			"/>
		</g>
	</g>
</g>
<g>
	<g>
		<line fill="none" stroke="#000000" stroke-width="28.8312" stroke-miterlimit="10" x1="472.2" y1="509.2" x2="327.4" y2="509.2"/>
		<g>
			<polygon points="465.2,561.7 465.2,456.6 517.7,509.2 			"/>
		</g>
	</g>
</g>
<g>
	<path d="M481.6,39.6c-4.5,4.2-8.5,8.3-12.9,12c-0.8,0.7-2.8,0.3-4-0.1c-8-3-16-6.2-24.1-9.2c-1.3-0.5-2.7-0.4-4.5-0.6
		c-0.4,5.6,0.8,12.4-6.8,12.6c-8,0.2-6.7-7-7.1-12.1c-28.5,1-57.2,28.1-58.9,58.7c5.1,0.6,12.6-0.9,12.3,7.4
		c-0.3,7.4-6.9,6.2-11.9,6.5c-0.3,26.2,26.6,57.4,58.5,58.8c0.5-5.1-0.8-12.3,7.1-12.2c7.7,0,6.4,7,6.9,12
		c27.8-0.3,57.7-28.2,58.8-58.6c-5.2-0.4-12.3,0.9-12.2-7.1c0.1-7.7,7.1-6.3,12.5-6.8c0.1-7.1-1.9-13.3-4.6-19.3
		c-1.2-2.6-0.8-4,1.1-5.9c3.9-3.8,7.6-7.8,11.5-11.8c16.1,21.7,21.8,69.8-11.2,104.3c-32.3,33.7-87.8,36.6-123.5,2.1
		c-33.6-32.5-36.2-87.9-1.3-123.5C400.5,12.9,451,14.3,481.6,39.6z"/>
	<path d="M429,105.4c7.6-7.8,15.2-15.5,22.7-23.1c14.6-14.7,29.3-29.3,43.9-43.9c0.7-0.7,1.4-1.4,2.2-2c3.5-2.7,6.9-2.6,9.7,0.2
		c2.6,2.7,2.7,6.5-0.3,9.6c-7.1,7.4-14.4,14.5-21.6,21.7c-16.4,16.4-32.7,32.7-49.1,49.1c-5.5,5.5-8,5.7-14,0.9
		c-9.6-7.6-19.2-15.2-28.6-22.9c-1.8-1.5-3.7-3.4-4.5-5.6c-1.1-2.7,0.1-5.4,2.7-7.1c2.9-2,5.8-1.5,8.4,0.5
		c8.3,6.5,16.4,13,24.7,19.6C426.2,103.2,427.3,104.1,429,105.4z"/>
</g>
</svg>
