<?xml version="1.0" encoding="utf-8"?>
<!-- Generator: Adobe Illustrator 17.0.0, SVG Export Plug-In . SVG Version: 6.00 Build 0)  -->
<!DOCTYPE svg PUBLIC "-//W3C//DTD SVG 1.1//EN" "http://www.w3.org/Graphics/SVG/1.1/DTD/svg11.dtd">
<svg version="1.1" id="Layer_1" xmlns="http://www.w3.org/2000/svg" xmlns:xlink="http://www.w3.org/1999/xlink" x="0px" y="0px"
	 width="566.9px" height="566.9px" viewBox="0 0 566.9 566.9" enable-background="new 0 0 566.9 566.9" xml:space="preserve">
<g>
	<path d="M228.5,121.3c22,0,40-18,40-39.9c0-22.2-18-40.1-40-40.1c-22.2,0-40,18-40,40C188.5,103.3,206.2,121.3,228.5,121.3
		L228.5,121.3z M231.1,259.1h108.5v-40h-80.4l-44.4-74c-6.7-11.1-18.7-18.5-32.5-18.5c-3.8,0-7.5,0.7-10.9,1.6L50.7,165.7v115.6h40
		v-81.5l46.9-14.7L50.7,525.8h40l63.8-180.2l51.8,69.1v111.1h40V383.3l-55.3-100.9l16.2-63.8L231.1,259.1z M231.1,259.1"/>
</g>
<g>
	<line fill="#FFFFFF" x1="517.7" y1="363.8" x2="327.4" y2="363.8"/>
	<g>
		<line fill="none" stroke="#000000" stroke-width="28.8312" stroke-miterlimit="10" x1="517.7" y1="363.8" x2="372.9" y2="363.8"/>
		<g>
			<polygon points="379.9,416.4 379.9,311.3 327.4,363.8 			"/>
		</g>
	</g>
</g>
<g>
	<g>
		<line fill="none" stroke="#000000" stroke-width="28.8312" stroke-miterlimit="10" x1="472.2" y1="475.2" x2="327.4" y2="475.2"/>
		<g>
			<polygon points="465.2,527.7 465.2,422.6 517.7,475.2 			"/>
		</g>
	</g>
</g>
</svg>
