<?xml version="1.0" encoding="utf-8"?>
<!-- Generator: Adobe Illustrator 17.0.0, SVG Export Plug-In . SVG Version: 6.00 Build 0)  -->
<!DOCTYPE svg PUBLIC "-//W3C//DTD SVG 1.1//EN" "http://www.w3.org/Graphics/SVG/1.1/DTD/svg11.dtd">
<svg version="1.1" id="Layer_1" xmlns="http://www.w3.org/2000/svg" xmlns:xlink="http://www.w3.org/1999/xlink" x="0px" y="0px"
	 width="566.9px" height="566.9px" viewBox="0 0 566.9 566.9" enable-background="new 0 0 566.9 566.9" xml:space="preserve">
<g>
	<path fill="none" d="M283.8,220.3h-84.3c4.7,35.3,35,62.6,71.6,62.6h113.2L348.3,247C331.1,229.8,308.2,220.3,283.8,220.3z"/>
	<polygon fill="none" points="514.3,98.1 501.5,85.3 488.6,98.1 501.5,111 	"/>
	<path fill="none" d="M336.4,33.1c0-2.5-2-4.5-4.5-4.5h-81.7c-2.5,0-4.6,2-4.6,4.5c0,2.5,2,4.5,4.6,4.5h31.7V65c1.1,0,2.1,0,3.2,0
		c1.5,0,3-0.1,4.5-0.1c0.2,0,0.4,0,0.7,0c0.3,0,0.5,0,0.8,0c2.9,0,5.9,0,9.1,0.2V37.6h31.8C334.4,37.6,336.4,35.5,336.4,33.1z"/>
	<path d="M218.4,400.8c0,5.1-4.1,9.1-9.1,9.1l190.7,0c15.4,0,29.9-4.8,40.9-15.7c10.9-10.9,16.9-25.4,16.9-40.9
		c0-15.4-6-29.9-16.9-40.9l-79-79c-20.9-20.9-48.6-32.4-78.1-32.4h-74.5c5,0,9.1,4,9.1,9.1c0,5-4.1,9-9.1,9h-28.9
		c2.1,16.6,8.7,32.3,18.5,45.4h10.4c5,0,9.1,4.1,9.1,9.1c0,5,15.2,9.1,10.2,9.1h-12c15.2,12,34,19.3,54.4,19.3h132.3l24,24
		c7.3,7.3,11.3,17,11.3,27.3c0,10.3-4,20-11.3,27.3c-7.3,7.3-17,11.3-27.3,11.3H210.7C215.1,392.6,218.4,396.3,218.4,400.8z
		 M271,282.9c-36.6,0-66.9-27.3-71.6-62.6h84.3c24.4,0,47.3,9.5,64.5,26.7l35.9,35.9H271z"/>
	<rect x="297.7" y="323.8" width="19.2" height="19.2"/>
	<rect x="259.4" y="323.8" width="19.2" height="19.2"/>
	<rect x="374.5" y="323.8" width="19.2" height="19.2"/>
	<rect x="336.1" y="323.8" width="19.2" height="19.2"/>
	<path d="M501.9,187.5c-0.1-0.2-0.3-0.3-0.4-0.5c-9.2-15.7-20-30.4-32.4-43.7l19.5-19.5l12.9,12.8L540,98.1l-38.5-38.5l-38.5,38.5
		l12.9,12.9l-19.5,19.5c-13.3-12.3-27.9-23.2-43.7-32.4c-0.2-0.1-0.3-0.3-0.4-0.4c-0.2-0.1-0.4-0.1-0.6-0.2
		c-28.1-16.2-59.6-27-93.3-30.9V55.8h13.6c12.5,0,22.7-10.2,22.7-22.7c0-12.5-10.2-22.7-22.7-22.7h-81.7
		c-12.6,0-22.7,10.2-22.7,22.7c0,12.5,10.1,22.7,22.7,22.7h13.6v10.5c-9.8,1-19.6,2.6-29.3,4.8c-4.9,1.1-8,6-6.8,10.9
		c1.1,4.9,6,7.9,10.9,6.8c8.3-1.9,16.8-3.3,25.2-4.3l9.8-0.7c3-0.2,5.7-0.4,8.4-0.5v18c0,5,4.1,9.1,9.1,9.1c5,0,9.1-4.1,9.1-9.1
		V83.3c34.1,1.5,66.3,10.7,94.9,25.8l-9,15.5c-2.5,4.3-1,9.9,3.3,12.4c1.5,0.8,3,1.2,4.6,1.2c3.1,0,6.2-1.6,7.8-4.5l8.9-15.5
		c28.4,18,52.6,42.2,70.6,70.6l-15.5,8.9c-4.3,2.5-5.8,8.1-3.3,12.4c1.7,2.9,4.7,4.5,7.9,4.5c1.6,0,3.1-0.4,4.6-1.2l15.5-9
		c15.3,29,24.5,61.7,25.9,96.4h-18c-5,0-9.1,4.1-9.1,9.1c0,5,4.1,9.1,9.1,9.1h18c-1.4,34.7-10.6,67.4-25.9,96.4l-15.5-9
		c-4.3-2.5-9.9-1.1-12.4,3.3c-2.5,4.3-1,9.9,3.3,12.4l15.5,8.9c-18,28.4-42.2,52.5-70.6,70.6l-8.9-15.5c-2.5-4.4-8.1-5.9-12.4-3.3
		c-4.3,2.5-5.9,8.1-3.3,12.4l9,15.5c-28.6,15.1-60.8,24.2-95,25.8v-17.9c0-5-4-9.1-9-9.1c-5.1,0-9.1,4.1-9.1,9.1v17.9
		c-14.5-0.5-29-2.3-43.4-5.6c-4.9-1.2-9.8,2-10.9,6.8c-1.1,4.9,2,9.8,6.8,10.9c18.1,4.2,36.7,6.3,55,6.3c0.4,0,0.9,0,1.3,0
		c0,0,0.1,0,0.1,0c0.1,0,0.1,0,0.2,0c43.6-0.3,84.6-12.1,120-32.5c0.3-0.1,0.6-0.2,0.8-0.4c0.2-0.1,0.3-0.3,0.5-0.4
		c36.7-21.4,67.3-52,88.7-88.6c0.2-0.2,0.4-0.4,0.5-0.7c0.1-0.2,0.1-0.4,0.2-0.6c20.8-36,32.6-77.6,32.6-122
		c0-44.4-11.9-86-32.6-122C502,187.8,502,187.6,501.9,187.5z M501.5,85.3l12.8,12.8L501.5,111l-12.9-12.9L501.5,85.3z M300.1,65
		c-3.1-0.1-6.2-0.2-9.1-0.2c-0.3,0-0.5,0-0.8,0c-0.2,0-0.4,0-0.7,0c-1.5,0-3,0.1-4.5,0.1c-1.1,0-2,0-3.2,0V37.6h-31.7
		c-2.5,0-4.6-2-4.6-4.5c0-2.5,2-4.5,4.6-4.5h81.7c2.5,0,4.5,2,4.5,4.5c0,2.5-2,4.5-4.5,4.5h-31.8V65z"/>
	<path d="M163.9,155.7h45.4c5,0,9.1-4.1,9.1-9.1c0-5-4.1-9.1-9.1-9.1h-45.4c-5,0-9.1,4.1-9.1,9.1
		C154.8,151.6,158.9,155.7,163.9,155.7z"/>
	<path d="M218.4,210.2c0-5.1-4.1-9.1-9.1-9.1h-29.7h-61.1c-5,0-9.1,4-9.1,9.1c0,5,4.1,9,9.1,9h61.9h28.9
		C214.3,219.2,218.4,215.2,218.4,210.2z"/>
	<path d="M218.4,273.7c0-5-4.1-9.1-9.1-9.1h-10.4H73.1c-5,0-9.1,4.1-9.1,9.1c0,5,4.1,9.1,9.1,9.1h143.6h12
		C233.6,282.8,218.4,278.7,218.4,273.7z"/>
	<path d="M218.4,337.3c0-5-4.1-9.1-9.1-9.1H36.8c-5,0-9.1,4.1-9.1,9.1c0,5,4.1,9.1,9.1,9.1h172.5
		C214.3,346.4,218.4,342.3,218.4,337.3z"/>
	<path d="M218.4,400.8c0-4.5-3.3-8.2-7.7-8.9c-0.5-0.1-0.9-0.1-1.4-0.1h-118c-5.1,0-9.1,4-9.1,9c0,5.1,4,9.1,9.1,9.1h118
		C214.3,409.9,218.4,405.9,218.4,400.8z"/>
	<path d="M209.3,455.3h-63.6c-5,0-9,4.1-9,9.1c0,5,4,9.1,9,9.1h63.6c5,0,9.1-4.1,9.1-9.1C218.4,459.4,214.3,455.3,209.3,455.3z"/>
</g>
</svg>
