<?xml version="1.0" encoding="utf-8"?>
<!-- Generator: Adobe Illustrator 17.0.0, SVG Export Plug-In . SVG Version: 6.00 Build 0)  -->
<!DOCTYPE svg PUBLIC "-//W3C//DTD SVG 1.1//EN" "http://www.w3.org/Graphics/SVG/1.1/DTD/svg11.dtd">
<svg version="1.1" id="Layer_1" xmlns="http://www.w3.org/2000/svg" xmlns:xlink="http://www.w3.org/1999/xlink" x="0px" y="0px"
	 width="536px" height="509.3px" viewBox="0 0 536 509.3" enable-background="new 0 0 536 509.3" xml:space="preserve">
<g>
	<path fill="#1B5370" d="M534.1,468.3c-13.4,13.4-26.4,26.4-39.8,39.8c-1-0.7-2.4-1.7-3.8-2.8c-31.1-24.4-62.1-48.7-93.1-73.2
		c-3.2-2.6-6.4-3.5-10.4-3.5c-57.8,0.1-115.6,0.1-173.5,0.1c-41.8,0-72.6-24.4-82-65C119.7,312,108,260.4,96.3,208.8
		c-5.6-24.8,4.8-50,26-63.9c20.7-13.5,48.4-12.8,68.5,2.2c14.8,11.1,29.3,22.6,43.9,33.9c28.6,22.1,60.9,34.6,97.2,36.1
		c7.4,0.3,14.9-0.7,22.4-1.1c1.9-0.1,3.9-0.4,6.1-0.7c0,19,0,37.5,0,56.5c-49.8,8.3-93.8-8.4-137-32.4c2.4,9.7,4.5,18.3,6.7,27
		c6.5,26,13.1,51.9,19.5,78c0.8,3.5,2.3,4.4,5.7,4.4c40.3-0.1,80.6-0.1,121,0c2.5,0,5.4,0.7,7.3,2.1
		c49.6,38.5,99.1,77.2,148.6,115.8C532.9,467.1,533.5,467.7,534.1,468.3z"/>
	<path fill="#1B5370" d="M374.6,455.4c0.1,2,0.2,3.3,0.2,4.6c0,16,0,31.9,0,48.4c-2.1,0.1-3.9,0.2-5.6,0.2
		c-60.8,0-121.6,0.1-182.5,0c-65.5-0.1-119.8-46.4-132-110.9c-10.6-56.3-22.7-112.3-34.1-168.4c-6.1-29.8-12.2-59.7-18.3-89.5
		c-0.3-1.3-0.3-2.6-0.5-4.2c17.7,0,35.1,0,53,0c3.1,14.8,6.2,29.6,9.3,44.4c14.2,68.1,28.6,136.2,42.4,204.4
		c3.5,17.2,9.3,33,21.6,45.8c16.2,16.9,36.2,25.1,59.5,25.1c60,0.1,120,0,180,0C369.7,455.4,371.9,455.4,374.6,455.4z"/>
	<path fill="#1B5370" d="M121.2,108.6c-29.5,0-53.2-24-53.1-53.7c0.1-29.3,23.9-53,53.3-53c29.4,0,53.4,24,53.4,53.5
		C174.8,84.8,150.8,108.6,121.2,108.6z"/>
</g>
</svg>
