<?xml version="1.0" encoding="utf-8"?>
<!-- Generator: Adobe Illustrator 17.0.0, SVG Export Plug-In . SVG Version: 6.00 Build 0)  -->
<!DOCTYPE svg PUBLIC "-//W3C//DTD SVG 1.1//EN" "http://www.w3.org/Graphics/SVG/1.1/DTD/svg11.dtd">
<svg version="1.1" id="Layer_1" xmlns="http://www.w3.org/2000/svg" xmlns:xlink="http://www.w3.org/1999/xlink" x="0px" y="0px"
	 width="517.8px" height="421.6px" viewBox="0 0 517.8 421.6" enable-background="new 0 0 517.8 421.6" xml:space="preserve">
<g>
	<path fill="#1B5370" d="M0.7,217.4c1.9-12.3,2.6-24.8,5.9-36.7c9.3-33,19.4-65.7,29.7-98.4c7.5-23.8,24.5-34,49.1-32.8
		c21.3,1,42.6,1.9,64.8,2.9c-3.6-17.9-13.8-28.5-29.9-33.1C110.5,16.4,100,16,90,13.6c-4.3-1-8-4.2-12-6.4c4.3-1.8,8.6-5.2,13-5.3
		c37.4-0.6,74.8-0.9,112.2-0.8c9.9,0,19.7,1.1,29.5,2.2c4.3,0.5,8.5,2.5,12.7,3.9c-0.1,1.7-0.1,3.4-0.2,5
		c-7.4,0.6-14.9,1.9-22.3,1.6c-23.5-0.9-43,13.4-49.4,38.1c8.2,0,16.1,0.1,24,0c46.1-1,60.2,7.3,78.9,50.7
		c20.5,47.6,53.1,84.9,94.4,115.2c35.6,26.1,75.5,42.1,118.6,50.8c25.7,5.2,27.9,8.2,27,34.4c-0.3,9.9-0.3,19.8-1,29.6
		c-1.1,16-3.9,18.5-19.5,18.9c-5.2,0.1-10.3,0.1-15.5,0.1c-97.1,0-194.3-0.2-291.4,0.1c-29.2,0.1-58.4,1.7-87.6,2.2
		c-11.1,0.2-22.5,0.3-33.4-1.3c-43.8-6.4-59.1-22.4-65-66.4c-0.3-2.4-1.5-4.7-2.3-7.1C0.7,258.6,0.7,238,0.7,217.4z M139.5,155.4
		c30.5,0,61,0.1,91.5,0c14.3-0.1,19-4.6,18-18.5c-1.5-20.8-10-39.1-23.8-54.4c-3.4-3.8-10.4-5.7-15.9-6.2
		c-16.2-1.5-32.6-2.7-48.9-2.6c-30.4,0-60.8,1-91.3,1.5c-10.9,0.2-17.7,6.5-21.5,15.8c-5.2,12.7-9.6,25.7-14.1,38.6
		c-7,20.2-3.1,25.7,18.2,25.9C81.1,155.6,110.3,155.4,139.5,155.4z M287.6,164.2c-2,0.7-3.9,1.4-5.9,2.1c1.8,22.9,2,46,5.9,68.5
		c3.2,19,16.1,29.2,31.9,30c0-5.1,0-10.2,0-15.3c0-15,0.3-30-0.3-45c-0.1-3.9-2-8.5-4.6-11.5C306,183.1,296.7,173.7,287.6,164.2z
		 M338,216.6c-7.1,33.1,0.2,67.2,30.2,68.8C371.6,246.8,363.7,228.8,338,216.6z M210,273.6c11,0.4,19.8-7.8,20.2-18.7
		c0.3-11.1-7.8-21-17.7-21.5c-11.1-0.5-20.2,7.4-20.8,18.1C190.9,263.3,199.2,273.3,210,273.6z M72.6,254
		c-0.1-11.3-8.6-20.7-18.6-20.6c-11.7,0.1-20.2,8.8-19.9,20.5c0.3,11.4,8.5,19.8,19.3,19.7C64.8,273.4,72.8,265.3,72.6,254z
		 M385,245.7c-6.6,31.3,3.8,52.2,25.7,52.9C415.1,265.7,410.5,256,385,245.7z M427.2,264.1c-8.3,25.1,0.4,42.9,21.1,43.1
		C452.4,277.3,448.5,269.3,427.2,264.1z M479.4,312.9c5.8-31.2,2.7-37.7-17.9-38.2C455.5,297.9,459.8,312.7,479.4,312.9z
		 M162.1,45.8c7-10.8,13.5-20.8,20.4-31.3c-14.4,0-27.9,0-42.7,0c4.7,5.9,8.5,10.4,11.9,15.2C155.2,34.5,158.2,39.6,162.1,45.8z
		 M505.2,315c6-30.3,3.5-36.5-14.3-34.4C484.9,300.2,488.2,317.8,505.2,315z"/>
	<path fill="#1B5370" d="M45.1,370.4c16.2,0,31.7,0.3,47.1-0.1c6.7-0.2,10.4,1.8,11.4,8.8c1.5,10.9,8.5,13.3,18.6,12.8
		c14.1-0.6,28.3-0.8,42.4,0.4c18.5,1.5,21.4,0,28.7-21.8c9.1,0,18.6,0,28,0c78.7,0,157.4,0.1,236.1-0.1c12,0,24-0.9,36-1.8
		c16.6-1.3,21.3,3,21.1,20.2c-26.5,2-53,3.2-79.4,6.3c-50.8,5.9-101.3,13.8-152.1,19.3c-30.3,3.3-60.9,4.2-91.3,5
		c-55.8,1.3-111.7,1.6-167.6,2.4c-15.6,0.2-21-5.8-19.2-21.2c1-8.6,5.2-11.6,13.8-11C39.2,391,39.2,390.7,45.1,370.4z"/>
</g>
</svg>
