<?xml version="1.0" encoding="utf-8"?>
<!-- Generator: Adobe Illustrator 17.0.0, SVG Export Plug-In . SVG Version: 6.00 Build 0)  -->
<!DOCTYPE svg PUBLIC "-//W3C//DTD SVG 1.1//EN" "http://www.w3.org/Graphics/SVG/1.1/DTD/svg11.dtd">
<svg version="1.1" id="Layer_1" xmlns="http://www.w3.org/2000/svg" xmlns:xlink="http://www.w3.org/1999/xlink" x="0px" y="0px"
	 width="566.9px" height="566.9px" viewBox="0 0 566.9 566.9" enable-background="new 0 0 566.9 566.9" xml:space="preserve">
<g>
	<path fill="#1B5370" d="M21.5,295.2c1.9-12.5,2.6-25.3,6.1-37.4c9.5-33.6,19.8-67,30.3-100.4c7.6-24.2,25-34.7,50.1-33.5
		c21.7,1.1,43.5,1.9,66.1,2.9c-3.6-18.2-14.1-29.1-30.5-33.7c-10-2.8-20.7-3.3-30.9-5.7c-4.3-1-8.2-4.3-12.2-6.6
		c4.4-1.9,8.8-5.3,13.2-5.4c38.1-0.7,76.2-0.9,114.4-0.8c10,0,20.1,1.1,30.1,2.3c4.4,0.5,8.6,2.6,13,4c-0.1,1.7-0.1,3.4-0.2,5.1
		c-7.6,0.6-15.2,2-22.8,1.7c-23.9-0.9-43.8,13.7-50.3,38.9c8.4,0,16.4,0.1,24.5,0c47-1,61.4,7.4,80.5,51.7
		c20.9,48.6,54.1,86.6,96.2,117.4c36.3,26.6,77,42.9,120.9,51.8c26.2,5.3,28.4,8.4,27.5,35.1c-0.3,10.1-0.3,20.2-1,30.2
		c-1.1,16.3-4,18.9-19.9,19.3c-5.3,0.1-10.5,0.1-15.8,0.1c-99,0-198.1-0.2-297.1,0.1c-29.8,0.1-59.5,1.7-89.3,2.3
		c-11.4,0.2-22.9,0.3-34.1-1.3c-44.7-6.5-60.2-22.8-66.3-67.7c-0.3-2.5-1.6-4.8-2.4-7.2C21.5,337.3,21.5,316.2,21.5,295.2z
		 M163.1,232c31.1,0,62.2,0.1,93.3,0c14.6-0.1,19.4-4.7,18.4-18.9c-1.5-21.2-10.2-39.9-24.3-55.5c-3.5-3.9-10.6-5.8-16.2-6.3
		c-16.6-1.6-33.2-2.7-49.8-2.7c-31,0-62,1-93.1,1.5c-11.1,0.2-18,6.6-21.9,16.1c-5.3,12.9-9.8,26.2-14.4,39.4
		c-7.1,20.6-3.2,26.3,18.6,26.4C103.5,232.2,133.3,232,163.1,232z M314.1,240.9c-2,0.7-4,1.4-6,2.1c1.8,23.3,2.1,46.9,6,69.9
		c3.3,19.4,16.4,29.8,32.5,30.6c0-5.2,0-10.4,0-15.6c0-15.3,0.3-30.6-0.3-45.9c-0.1-4-2.1-8.7-4.7-11.7
		C332.8,260.2,323.3,250.7,314.1,240.9z M365.5,294.4c-7.2,33.7,0.2,68.5,30.8,70.2C399.7,325.2,391.7,306.8,365.5,294.4z
		 M234.9,352.6c11.3,0.4,20.2-7.9,20.6-19.1c0.3-11.3-8-21.4-18.1-21.9c-11.3-0.6-20.6,7.5-21.2,18.5
		C215.6,342,224,352.2,234.9,352.6z M94.9,332.6c-0.1-11.5-8.8-21.1-18.9-21c-12,0.1-20.6,9-20.3,20.9c0.3,11.6,8.7,20.2,19.6,20.1
		C86.9,352.4,95.1,344.1,94.9,332.6z M413.4,324.1c-6.8,32,3.9,53.2,26.2,54C444.1,344.5,439.5,334.6,413.4,324.1z M456.4,342.9
		c-8.4,25.6,0.5,43.7,21.5,44C482.2,356.3,478.2,348.1,456.4,342.9z M509.7,392.6c6-31.8,2.8-38.5-18.3-38.9
		C485.3,377.3,489.7,392.4,509.7,392.6z M186.2,120.2c7.2-11,13.8-21.2,20.8-31.9c-14.7,0-28.5,0-43.5,0c4.7,6,8.7,10.6,12.1,15.5
		C179.1,108.7,182.2,113.9,186.2,120.2z M536,394.8c6.2-30.9,3.5-37.2-14.6-35.1C515.3,379.7,518.7,397.6,536,394.8z"/>
	<path fill="#1B5370" d="M66.9,451.2c16.6,0,32.3,0.3,48-0.1c6.9-0.2,10.6,1.8,11.6,8.9c1.5,11.1,8.7,13.5,19,13.1
		c14.4-0.6,28.9-0.8,43.2,0.4c18.9,1.5,21.8,0,29.3-22.2c9.3,0,18.9,0,28.5,0c80.2,0,160.5,0.1,240.7-0.1c12.2,0,24.5-0.9,36.7-1.9
		c17-1.3,21.7,3,21.5,20.6c-27,2.1-54.1,3.2-80.9,6.4c-51.8,6.1-103.3,14.1-155.1,19.6c-30.9,3.3-62.1,4.3-93.1,5.1
		c-56.9,1.3-113.9,1.6-170.9,2.5c-15.9,0.2-21.4-6-19.6-21.6c1-8.8,5.3-11.8,14.1-11.2C60.9,472.2,60.9,471.9,66.9,451.2z"/>
</g>
</svg>
